<svg xmlns="http://www.w3.org/2000/svg" viewBox="0 0 3030 2606" width="3030" height="2606">
<path fill="#000000" fill-rule="evenodd" d="M 1085 2444 L 1082 2452 L 1082 2458 L 1083 2459 L 1083 2464 L 1087 2468 L 1090 2469 L 1105 2469 L 1112 2466 L 1112 2464 L 1107 2462 L 1100 2456 L 1088 2443 Z M 1876 2369 L 1871 2370 L 1866 2373 L 1857 2382 L 1854 2391 L 1846 2404 L 1845 2414 L 1844 2415 L 1844 2433 L 1845 2434 L 1846 2446 L 1859 2463 L 1868 2469 L 1879 2469 L 1885 2466 L 1885 2464 L 1879 2460 L 1873 2453 L 1869 2444 L 1866 2429 L 1866 2405 L 1869 2393 L 1873 2388 L 1877 2379 L 1877 2370 Z M 1110 2363 L 1105 2367 L 1096 2384 L 1095 2389 L 1102 2403 L 1106 2408 L 1116 2416 L 1133 2435 L 1135 2442 L 1134 2452 L 1132 2457 L 1124 2463 L 1125 2467 L 1133 2468 L 1144 2461 L 1156 2444 L 1156 2431 L 1147 2416 L 1136 2405 L 1131 2402 L 1126 2397 L 1125 2394 L 1118 2388 L 1115 2380 L 1115 2373 L 1117 2369 L 1117 2366 Z M 1633 2361 L 1628 2362 L 1626 2364 L 1626 2368 L 1628 2372 L 1633 2377 L 1636 2385 L 1637 2401 L 1638 2402 L 1637 2419 L 1635 2426 L 1627 2439 L 1626 2446 L 1618 2452 L 1618 2458 L 1619 2459 L 1623 2459 L 1629 2456 L 1644 2444 L 1648 2438 L 1650 2429 L 1656 2420 L 1659 2412 L 1659 2393 L 1656 2382 L 1647 2370 L 1637 2362 Z M 1914 2356 L 1918 2360 L 1919 2369 L 1922 2374 L 1924 2384 L 1930 2398 L 1930 2420 L 1922 2435 L 1921 2445 L 1917 2453 L 1917 2456 L 1926 2455 L 1941 2440 L 1942 2433 L 1946 2422 L 1952 2412 L 1953 2398 L 1950 2385 L 1941 2368 L 1936 2363 L 1928 2359 Z M 1763 2355 L 1752 2355 L 1747 2359 L 1746 2379 L 1742 2397 L 1738 2407 L 1733 2451 L 1731 2456 L 1726 2462 L 1726 2466 L 1731 2469 L 1743 2470 L 1751 2467 L 1753 2464 L 1751 2457 L 1751 2450 L 1756 2433 L 1758 2407 L 1761 2391 L 1765 2381 L 1768 2367 L 1767 2359 Z M 1597 2356 L 1593 2355 L 1579 2356 L 1575 2361 L 1570 2408 L 1562 2435 L 1561 2455 L 1556 2464 L 1561 2469 L 1575 2470 L 1580 2469 L 1585 2466 L 1585 2462 L 1581 2455 L 1581 2449 L 1582 2448 L 1585 2416 L 1591 2398 L 1593 2388 L 1593 2378 L 1594 2377 Z M 1484 2355 L 1477 2357 L 1475 2361 L 1475 2370 L 1477 2375 L 1478 2398 L 1480 2399 L 1481 2379 L 1490 2363 L 1490 2357 Z M 1408 2356 L 1403 2359 L 1401 2364 L 1399 2382 L 1398 2383 L 1397 2404 L 1394 2419 L 1390 2429 L 1389 2442 L 1392 2452 L 1398 2461 L 1403 2466 L 1409 2469 L 1428 2469 L 1434 2467 L 1449 2468 L 1452 2465 L 1452 2463 L 1450 2461 L 1443 2461 L 1439 2463 L 1424 2461 L 1420 2459 L 1413 2452 L 1410 2445 L 1410 2425 L 1412 2416 L 1417 2404 L 1420 2374 L 1422 2368 L 1422 2358 L 1417 2355 Z M 1287 2355 L 1275 2355 L 1269 2358 L 1269 2373 L 1268 2374 L 1268 2381 L 1266 2390 L 1265 2410 L 1258 2433 L 1255 2457 L 1251 2463 L 1252 2467 L 1255 2469 L 1268 2470 L 1269 2469 L 1274 2469 L 1278 2466 L 1278 2460 L 1277 2459 L 1278 2431 L 1281 2415 L 1285 2405 L 1285 2401 L 1288 2391 L 1288 2381 L 1289 2380 L 1289 2370 L 1290 2369 L 1290 2357 Z M 1312 2354 L 1309 2355 L 1308 2358 L 1310 2361 L 1310 2366 L 1313 2372 L 1317 2374 L 1324 2367 L 1325 2357 L 1322 2355 Z M 1253 2355 L 1243 2354 L 1240 2355 L 1237 2358 L 1235 2363 L 1235 2369 L 1238 2374 L 1240 2375 L 1247 2369 L 1254 2358 Z M 1140 2354 L 1139 2357 L 1145 2361 L 1148 2373 L 1153 2377 L 1155 2376 L 1159 2369 L 1158 2362 L 1153 2357 L 1143 2353 Z M 2803 1959 L 2802 1960 L 2795 1960 L 2777 1966 L 2773 1966 L 2763 1969 L 2754 1977 L 2748 1979 L 2740 1985 L 2738 1989 L 2731 1996 L 2726 2006 L 2718 2017 L 2718 2025 L 2716 2035 L 2716 2057 L 2717 2058 L 2717 2069 L 2719 2078 L 2727 2089 L 2729 2095 L 2738 2104 L 2741 2109 L 2747 2112 L 2756 2120 L 2760 2121 L 2776 2130 L 2789 2131 L 2790 2132 L 2812 2133 L 2813 2132 L 2833 2130 L 2839 2128 L 2850 2121 L 2854 2120 L 2864 2111 L 2867 2110 L 2879 2097 L 2881 2091 L 2888 2084 L 2891 2075 L 2893 2054 L 2894 2053 L 2894 2040 L 2893 2039 L 2893 2032 L 2892 2031 L 2892 2024 L 2890 2014 L 2883 2005 L 2878 1995 L 2869 1986 L 2867 1982 L 2856 1977 L 2851 1972 L 2844 1968 L 2837 1966 L 2832 1966 L 2815 1960 Z M 2786 1990 L 2815 1989 L 2830 1992 L 2839 2000 L 2845 2002 L 2850 2010 L 2858 2018 L 2858 2022 L 2861 2029 L 2864 2042 L 2864 2052 L 2860 2063 L 2859 2071 L 2856 2078 L 2837 2097 L 2833 2099 L 2824 2101 L 2811 2106 L 2798 2106 L 2783 2100 L 2774 2098 L 2760 2085 L 2758 2081 L 2753 2077 L 2750 2072 L 2749 2062 L 2746 2053 L 2746 2042 L 2751 2019 L 2766 2001 L 2772 1999 L 2778 1993 Z M 2519 1959 L 2480 1969 L 2471 1977 L 2461 1981 L 2456 1986 L 2454 1990 L 2446 1998 L 2442 2008 L 2435 2016 L 2433 2039 L 2432 2040 L 2432 2053 L 2433 2054 L 2435 2077 L 2444 2090 L 2446 2096 L 2453 2102 L 2457 2109 L 2463 2112 L 2469 2118 L 2490 2129 L 2497 2131 L 2513 2132 L 2514 2133 L 2527 2133 L 2528 2132 L 2538 2132 L 2553 2129 L 2565 2122 L 2577 2118 L 2585 2110 L 2587 2104 L 2587 2059 L 2585 2050 L 2580 2046 L 2570 2046 L 2566 2048 L 2562 2059 L 2562 2086 L 2561 2087 L 2561 2092 L 2557 2097 L 2540 2102 L 2532 2106 L 2526 2106 L 2525 2107 L 2515 2106 L 2491 2098 L 2479 2088 L 2476 2083 L 2468 2075 L 2465 2066 L 2464 2055 L 2462 2050 L 2467 2020 L 2469 2016 L 2475 2011 L 2478 2005 L 2481 2002 L 2488 1999 L 2494 1993 L 2499 1991 L 2509 1990 L 2510 1989 L 2543 1990 L 2552 1993 L 2560 2000 L 2570 2003 L 2574 2001 L 2582 1993 L 2585 1988 L 2585 1983 L 2582 1980 L 2576 1978 L 2564 1969 L 2549 1966 L 2531 1960 Z M 2162 1961 L 2158 1965 L 2155 1973 L 2155 2125 L 2159 2130 L 2164 2132 L 2179 2132 L 2183 2129 L 2185 2125 L 2185 2026 L 2188 2022 L 2190 2022 L 2201 2032 L 2206 2041 L 2214 2048 L 2216 2054 L 2224 2062 L 2227 2069 L 2237 2080 L 2238 2084 L 2246 2092 L 2249 2098 L 2256 2105 L 2258 2110 L 2262 2116 L 2269 2123 L 2271 2128 L 2278 2132 L 2285 2132 L 2286 2133 L 2299 2132 L 2304 2126 L 2304 1973 L 2300 1961 L 2297 1959 L 2284 1960 L 2278 1965 L 2275 1972 L 2275 1978 L 2274 1979 L 2275 1981 L 2275 2052 L 2274 2053 L 2274 2063 L 2269 2067 L 2265 2067 L 2261 2064 L 2257 2056 L 2250 2050 L 2248 2044 L 2238 2033 L 2235 2026 L 2228 2020 L 2225 2013 L 2219 2008 L 2213 1997 L 2208 1993 L 2204 1985 L 2196 1977 L 2190 1967 L 2177 1959 L 2166 1959 Z M 1934 1961 L 1922 1977 L 1919 1990 L 1911 2002 L 1908 2015 L 1900 2027 L 1898 2037 L 1894 2045 L 1890 2049 L 1886 2065 L 1883 2068 L 1878 2077 L 1876 2087 L 1867 2102 L 1864 2115 L 1858 2122 L 1857 2125 L 1858 2129 L 1861 2131 L 1872 2132 L 1873 2133 L 1885 2131 L 1888 2128 L 1889 2123 L 1893 2115 L 1896 2112 L 1901 2100 L 1907 2095 L 1916 2095 L 1917 2094 L 1972 2094 L 1973 2095 L 1974 2094 L 1979 2094 L 1985 2097 L 1994 2106 L 1997 2113 L 1999 2124 L 2003 2129 L 2010 2132 L 2027 2132 L 2029 2131 L 2032 2127 L 2032 2123 L 2029 2117 L 2028 2110 L 2023 2104 L 2018 2088 L 2015 2082 L 2010 2076 L 2008 2065 L 1999 2050 L 1996 2037 L 1987 2022 L 1985 2012 L 1977 2000 L 1974 1987 L 1967 1977 L 1964 1967 L 1960 1962 L 1955 1960 L 1938 1959 Z M 1947 2003 L 1952 2007 L 1955 2021 L 1963 2034 L 1968 2050 L 1974 2058 L 1974 2061 L 1970 2066 L 1954 2066 L 1953 2067 L 1934 2066 L 1930 2067 L 1929 2066 L 1924 2066 L 1918 2062 L 1918 2058 L 1920 2055 L 1923 2043 L 1930 2032 L 1934 2016 Z M 1560 1963 L 1557 1968 L 1555 1975 L 1555 1983 L 1556 1984 L 1555 1987 L 1555 2125 L 1559 2130 L 1564 2132 L 1579 2132 L 1583 2128 L 1584 2125 L 1584 2114 L 1583 2113 L 1584 2112 L 1584 2034 L 1583 2031 L 1585 2023 L 1588 2019 L 1592 2022 L 1594 2027 L 1594 2031 L 1596 2035 L 1601 2040 L 1604 2046 L 1606 2054 L 1614 2066 L 1617 2077 L 1625 2088 L 1626 2094 L 1629 2101 L 1634 2108 L 1643 2114 L 1654 2113 L 1658 2110 L 1662 2101 L 1667 2096 L 1669 2092 L 1671 2083 L 1680 2069 L 1683 2058 L 1691 2047 L 1695 2034 L 1698 2031 L 1704 2029 L 1707 2026 L 1710 2031 L 1710 2126 L 1712 2129 L 1717 2132 L 1725 2132 L 1726 2133 L 1732 2132 L 1737 2126 L 1737 1973 L 1733 1961 L 1729 1959 L 1709 1959 L 1695 1973 L 1692 1980 L 1691 1986 L 1682 1999 L 1681 2006 L 1670 2024 L 1669 2031 L 1663 2038 L 1660 2044 L 1657 2055 L 1650 2062 L 1646 2064 L 1643 2064 L 1639 2060 L 1637 2051 L 1628 2037 L 1625 2026 L 1619 2020 L 1613 2002 L 1608 1997 L 1605 1990 L 1604 1984 L 1597 1975 L 1591 1963 L 1587 1960 L 1581 1960 L 1580 1959 L 1568 1959 L 1564 1960 Z M 1131 1959 L 1126 1962 L 1125 1966 L 1126 1977 L 1133 1984 L 1138 1998 L 1144 2004 L 1150 2019 L 1156 2026 L 1159 2036 L 1166 2044 L 1169 2053 L 1176 2063 L 1180 2072 L 1182 2082 L 1182 2113 L 1181 2114 L 1182 2116 L 1182 2122 L 1181 2123 L 1182 2127 L 1191 2132 L 1207 2132 L 1212 2128 L 1213 2124 L 1213 2073 L 1214 2070 L 1221 2063 L 1226 2049 L 1233 2041 L 1237 2029 L 1244 2021 L 1245 2015 L 1248 2009 L 1252 2005 L 1256 1998 L 1257 1992 L 1265 1982 L 1268 1974 L 1269 1964 L 1268 1962 L 1261 1959 L 1251 1959 L 1249 1960 L 1237 1972 L 1231 1987 L 1225 1993 L 1221 2004 L 1215 2011 L 1210 2023 L 1198 2036 L 1194 2036 L 1192 2034 L 1189 2026 L 1182 2019 L 1181 2014 L 1177 2006 L 1170 1998 L 1169 1993 L 1166 1987 L 1161 1982 L 1156 1970 L 1142 1959 Z M 889 1960 L 886 1962 L 882 1972 L 883 1981 L 888 1988 L 891 1989 L 925 1989 L 931 1991 L 935 1995 L 936 1999 L 935 2001 L 935 2046 L 936 2047 L 936 2082 L 935 2083 L 935 2109 L 936 2113 L 935 2118 L 936 2123 L 935 2124 L 936 2127 L 943 2132 L 958 2132 L 964 2127 L 964 1998 L 965 1995 L 969 1991 L 975 1989 L 1010 1989 L 1014 1987 L 1018 1978 L 1018 1971 L 1016 1964 L 1010 1959 L 893 1959 Z M 683 1960 L 680 1963 L 678 1969 L 678 2127 L 679 2129 L 683 2132 L 706 2132 L 707 2133 L 773 2132 L 781 2128 L 782 2126 L 782 2115 L 773 2106 L 768 2105 L 761 2105 L 760 2106 L 755 2105 L 721 2105 L 720 2106 L 716 2105 L 710 2098 L 709 2095 L 709 1971 L 706 1964 L 702 1961 L 694 1959 Z M 455 1962 L 450 1967 L 448 1975 L 438 1992 L 437 2000 L 428 2015 L 424 2029 L 418 2037 L 414 2052 L 407 2062 L 403 2077 L 398 2083 L 394 2093 L 394 2097 L 385 2112 L 385 2115 L 381 2125 L 382 2128 L 387 2132 L 403 2132 L 408 2130 L 414 2123 L 420 2104 L 427 2098 L 434 2094 L 498 2094 L 507 2096 L 513 2101 L 516 2111 L 528 2131 L 530 2132 L 549 2132 L 554 2130 L 557 2125 L 551 2117 L 545 2098 L 538 2088 L 535 2075 L 527 2063 L 524 2050 L 516 2037 L 513 2025 L 505 2012 L 502 2000 L 499 1994 L 494 1988 L 490 1972 L 478 1960 L 475 1959 L 464 1959 Z M 465 2001 L 469 2003 L 472 2009 L 478 2016 L 481 2023 L 484 2036 L 491 2046 L 494 2057 L 494 2062 L 489 2066 L 473 2066 L 472 2067 L 469 2066 L 463 2066 L 462 2067 L 459 2066 L 443 2066 L 439 2062 L 439 2058 L 442 2052 L 447 2046 L 450 2032 L 458 2019 L 461 2010 L 461 2006 Z M 189 1960 L 182 1962 L 177 1966 L 171 1967 L 164 1970 L 155 1978 L 146 1991 L 144 1998 L 145 2020 L 149 2029 L 157 2039 L 165 2045 L 167 2045 L 183 2054 L 202 2058 L 208 2061 L 211 2064 L 220 2066 L 226 2069 L 229 2072 L 232 2081 L 230 2095 L 225 2099 L 215 2102 L 197 2103 L 192 2101 L 172 2098 L 165 2091 L 159 2089 L 151 2084 L 147 2084 L 136 2099 L 135 2106 L 152 2119 L 158 2122 L 161 2122 L 172 2129 L 188 2131 L 189 2132 L 199 2132 L 200 2133 L 224 2132 L 231 2130 L 238 2125 L 250 2120 L 262 2107 L 264 2102 L 265 2091 L 266 2090 L 266 2078 L 263 2062 L 261 2058 L 256 2055 L 250 2047 L 237 2042 L 227 2035 L 207 2031 L 200 2026 L 189 2022 L 179 2012 L 177 2006 L 178 2002 L 187 1992 L 192 1990 L 199 1990 L 200 1989 L 224 1990 L 233 1993 L 237 1997 L 243 2000 L 251 2000 L 255 1998 L 260 1993 L 263 1987 L 263 1982 L 260 1975 L 256 1971 L 229 1962 L 215 1959 Z M 1479 1101 L 1475 1107 L 1467 1113 L 1465 1116 L 1460 1129 L 1455 1134 L 1453 1141 L 1450 1310 L 1449 1311 L 1448 1322 L 1443 1336 L 1440 1355 L 1430 1369 L 1428 1374 L 1425 1377 L 1414 1382 L 1405 1390 L 1393 1391 L 1373 1395 L 1358 1403 L 1357 1405 L 1358 1409 L 1364 1412 L 1369 1413 L 1393 1413 L 1394 1412 L 1538 1412 L 1539 1413 L 1567 1413 L 1573 1411 L 1577 1407 L 1576 1404 L 1568 1398 L 1550 1396 L 1532 1391 L 1518 1389 L 1508 1381 L 1501 1378 L 1498 1375 L 1495 1368 L 1486 1356 L 1484 1340 L 1479 1321 L 1478 1297 L 1477 1296 L 1478 1255 L 1479 1254 L 1480 1185 L 1481 1184 L 1482 1118 L 1483 1117 L 1482 1104 Z M 2235 683 L 2233 682 L 2163 682 L 2162 683 L 2098 682 L 2091 685 L 2076 697 L 2072 705 L 2064 715 L 2061 727 L 2054 737 L 2050 752 L 2042 764 L 2038 780 L 2034 784 L 2031 790 L 2029 800 L 2020 815 L 2017 828 L 2010 838 L 2006 853 L 1999 863 L 1997 873 L 1987 891 L 1985 901 L 1977 913 L 1974 926 L 1967 936 L 1963 951 L 1955 964 L 1952 977 L 1943 991 L 1941 1002 L 1935 1010 L 1930 1027 L 1922 1039 L 1921 1047 L 1911 1064 L 1909 1075 L 1900 1090 L 1897 1103 L 1890 1113 L 1886 1128 L 1878 1140 L 1877 1148 L 1868 1163 L 1865 1176 L 1862 1182 L 1857 1188 L 1854 1201 L 1846 1213 L 1843 1226 L 1834 1241 L 1832 1252 L 1827 1258 L 1824 1264 L 1821 1277 L 1815 1285 L 1811 1298 L 1808 1302 L 1804 1302 L 1802 1300 L 1799 1291 L 1794 1286 L 1792 1282 L 1788 1268 L 1781 1258 L 1777 1244 L 1770 1235 L 1768 1225 L 1764 1217 L 1760 1213 L 1757 1201 L 1748 1187 L 1745 1175 L 1737 1163 L 1734 1152 L 1725 1137 L 1724 1130 L 1715 1116 L 1712 1104 L 1704 1092 L 1702 1082 L 1694 1071 L 1691 1059 L 1682 1044 L 1680 1034 L 1671 1020 L 1669 1011 L 1661 999 L 1658 987 L 1652 979 L 1649 972 L 1649 968 L 1638 949 L 1636 939 L 1629 930 L 1625 916 L 1617 904 L 1614 892 L 1611 889 L 1607 889 L 1596 899 L 1593 908 L 1586 915 L 1582 923 L 1581 928 L 1574 935 L 1570 946 L 1570 959 L 1574 972 L 1581 982 L 1585 997 L 1590 1003 L 1593 1009 L 1594 1016 L 1604 1033 L 1606 1042 L 1614 1054 L 1618 1069 L 1625 1078 L 1628 1091 L 1630 1095 L 1635 1100 L 1638 1112 L 1646 1125 L 1651 1141 L 1658 1151 L 1661 1163 L 1669 1175 L 1671 1185 L 1674 1191 L 1679 1197 L 1682 1209 L 1690 1221 L 1693 1233 L 1701 1245 L 1703 1255 L 1713 1272 L 1714 1278 L 1718 1287 L 1723 1294 L 1727 1308 L 1734 1318 L 1734 1321 L 1738 1332 L 1745 1341 L 1748 1354 L 1755 1364 L 1759 1378 L 1765 1386 L 1768 1396 L 1773 1403 L 1782 1408 L 1786 1408 L 1798 1396 L 1800 1392 L 1803 1379 L 1809 1371 L 1816 1350 L 1821 1345 L 1825 1329 L 1832 1319 L 1835 1306 L 1844 1291 L 1846 1281 L 1854 1268 L 1857 1259 L 1857 1255 L 1865 1243 L 1868 1230 L 1873 1223 L 1877 1214 L 1878 1207 L 1887 1192 L 1890 1178 L 1897 1169 L 1901 1154 L 1909 1141 L 1911 1131 L 1920 1116 L 1923 1103 L 1930 1093 L 1934 1077 L 1941 1067 L 1944 1055 L 1953 1040 L 1953 1036 L 1956 1027 L 1962 1019 L 1965 1012 L 1966 1004 L 1974 991 L 1977 978 L 1985 966 L 1989 951 L 1996 941 L 1999 928 L 2006 918 L 2010 902 L 2017 892 L 2021 877 L 2027 869 L 2033 850 L 2040 840 L 2042 828 L 2050 816 L 2055 799 L 2057 797 L 2059 797 L 2063 801 L 2066 808 L 2066 826 L 2067 827 L 2067 839 L 2068 840 L 2068 850 L 2069 851 L 2071 908 L 2072 909 L 2075 1080 L 2076 1081 L 2076 1101 L 2077 1102 L 2080 1171 L 2081 1172 L 2081 1186 L 2082 1187 L 2083 1244 L 2084 1245 L 2085 1353 L 2084 1354 L 2084 1361 L 2081 1369 L 2065 1387 L 2059 1390 L 2048 1391 L 2035 1395 L 2003 1398 L 1998 1401 L 1996 1404 L 1996 1408 L 2000 1412 L 2003 1413 L 2034 1413 L 2035 1412 L 2210 1412 L 2211 1413 L 2243 1413 L 2244 1412 L 2250 1412 L 2256 1408 L 2256 1404 L 2254 1402 L 2244 1398 L 2214 1396 L 2198 1392 L 2181 1390 L 2174 1387 L 2169 1381 L 2166 1380 L 2162 1376 L 2160 1370 L 2153 1358 L 2151 1351 L 2150 1322 L 2149 1321 L 2149 1286 L 2148 1285 L 2147 1243 L 2146 1242 L 2146 1228 L 2145 1227 L 2143 1184 L 2142 1183 L 2142 1165 L 2141 1164 L 2137 993 L 2136 992 L 2136 975 L 2135 974 L 2133 933 L 2132 932 L 2132 920 L 2131 919 L 2130 874 L 2129 873 L 2128 761 L 2129 760 L 2129 745 L 2132 737 L 2136 733 L 2141 723 L 2149 715 L 2164 705 L 2193 701 L 2204 698 L 2229 696 L 2232 695 L 2237 689 L 2237 686 Z M 1151 631 L 1148 637 L 1148 649 L 1150 655 L 1150 662 L 1155 683 L 1155 690 L 1157 699 L 1159 744 L 1166 779 L 1168 797 L 1171 803 L 1181 812 L 1188 813 L 1194 816 L 1200 821 L 1215 825 L 1227 832 L 1252 837 L 1258 841 L 1265 843 L 1277 844 L 1278 845 L 1283 845 L 1290 843 L 1292 841 L 1292 839 L 1289 836 L 1281 834 L 1274 826 L 1261 821 L 1257 817 L 1251 804 L 1251 801 L 1246 792 L 1241 789 L 1232 779 L 1226 775 L 1221 766 L 1215 761 L 1209 750 L 1203 744 L 1200 736 L 1191 723 L 1188 713 L 1183 708 L 1181 704 L 1178 688 L 1170 673 L 1169 659 L 1166 644 L 1157 632 Z M 1878 323 L 1869 322 L 1866 324 L 1864 328 L 1858 334 L 1854 343 L 1846 351 L 1842 359 L 1834 368 L 1832 374 L 1825 381 L 1821 389 L 1811 401 L 1810 405 L 1804 411 L 1800 419 L 1791 429 L 1788 436 L 1781 444 L 1778 451 L 1771 458 L 1766 467 L 1758 476 L 1756 482 L 1750 488 L 1743 500 L 1736 507 L 1734 513 L 1726 522 L 1723 529 L 1716 536 L 1711 546 L 1706 550 L 1701 561 L 1695 566 L 1688 578 L 1682 584 L 1682 586 L 1678 593 L 1672 599 L 1669 606 L 1661 614 L 1657 623 L 1650 630 L 1647 637 L 1641 643 L 1634 655 L 1627 663 L 1626 668 L 1617 677 L 1613 685 L 1595 709 L 1593 714 L 1585 722 L 1581 731 L 1574 738 L 1570 747 L 1565 751 L 1557 765 L 1551 771 L 1549 777 L 1542 784 L 1535 796 L 1529 802 L 1526 809 L 1521 814 L 1514 826 L 1508 832 L 1506 837 L 1498 847 L 1494 855 L 1487 862 L 1481 873 L 1475 879 L 1473 885 L 1467 891 L 1460 903 L 1454 909 L 1448 920 L 1443 925 L 1440 932 L 1434 938 L 1428 949 L 1422 955 L 1417 965 L 1410 972 L 1406 980 L 1399 987 L 1395 996 L 1389 1002 L 1385 1010 L 1377 1018 L 1373 1027 L 1367 1033 L 1364 1040 L 1355 1050 L 1351 1058 L 1344 1066 L 1341 1073 L 1334 1080 L 1330 1088 L 1322 1096 L 1319 1104 L 1313 1110 L 1309 1118 L 1299 1130 L 1298 1134 L 1292 1140 L 1289 1147 L 1280 1157 L 1274 1168 L 1268 1174 L 1265 1181 L 1259 1187 L 1254 1196 L 1246 1205 L 1243 1213 L 1236 1220 L 1232 1228 L 1225 1235 L 1220 1245 L 1214 1251 L 1211 1258 L 1205 1264 L 1198 1276 L 1192 1282 L 1188 1291 L 1181 1298 L 1176 1307 L 1169 1314 L 1167 1320 L 1160 1328 L 1157 1335 L 1147 1346 L 1140 1362 L 1142 1366 L 1151 1371 L 1155 1371 L 1161 1367 L 1167 1361 L 1171 1353 L 1177 1347 L 1181 1338 L 1188 1331 L 1193 1322 L 1201 1313 L 1203 1307 L 1209 1301 L 1213 1293 L 1222 1283 L 1225 1276 L 1232 1269 L 1234 1263 L 1242 1254 L 1249 1242 L 1252 1240 L 1259 1227 L 1264 1223 L 1268 1215 L 1277 1205 L 1279 1199 L 1287 1190 L 1290 1183 L 1300 1172 L 1302 1166 L 1308 1160 L 1311 1153 L 1320 1143 L 1324 1135 L 1330 1129 L 1334 1120 L 1339 1116 L 1346 1104 L 1353 1097 L 1356 1089 L 1362 1083 L 1366 1075 L 1375 1065 L 1378 1058 L 1384 1052 L 1388 1043 L 1396 1035 L 1402 1024 L 1407 1020 L 1410 1012 L 1417 1005 L 1421 997 L 1429 988 L 1433 980 L 1440 972 L 1441 968 L 1450 958 L 1454 950 L 1462 941 L 1464 935 L 1472 927 L 1478 916 L 1484 910 L 1487 902 L 1493 897 L 1497 889 L 1505 880 L 1510 870 L 1516 864 L 1518 858 L 1528 847 L 1531 840 L 1538 833 L 1541 826 L 1547 820 L 1554 808 L 1560 802 L 1562 796 L 1570 787 L 1574 779 L 1581 772 L 1586 762 L 1592 756 L 1595 748 L 1601 743 L 1607 732 L 1615 723 L 1617 717 L 1625 709 L 1629 701 L 1636 694 L 1640 685 L 1645 680 L 1649 672 L 1658 662 L 1661 655 L 1667 649 L 1672 639 L 1679 632 L 1683 624 L 1691 615 L 1693 609 L 1699 603 L 1704 594 L 1713 584 L 1716 577 L 1724 568 L 1725 564 L 1733 555 L 1739 544 L 1745 538 L 1748 531 L 1754 525 L 1761 513 L 1769 504 L 1770 499 L 1777 493 L 1777 491 L 1782 483 L 1788 477 L 1793 467 L 1799 461 L 1801 455 L 1809 447 L 1813 441 L 1814 437 L 1821 430 L 1825 421 L 1833 413 L 1835 408 L 1844 397 L 1846 391 L 1854 383 L 1858 375 L 1864 369 L 1868 361 L 1874 354 L 1877 347 L 1884 339 L 1885 336 L 1883 328 Z M 1387 106 L 1386 108 L 1431 117 L 1437 122 L 1452 128 L 1461 136 L 1466 138 L 1483 154 L 1487 161 L 1493 167 L 1499 178 L 1505 183 L 1507 192 L 1517 208 L 1519 222 L 1526 237 L 1528 256 L 1531 265 L 1535 266 L 1539 264 L 1542 261 L 1542 243 L 1541 242 L 1541 226 L 1540 225 L 1540 205 L 1539 204 L 1537 157 L 1536 156 L 1535 146 L 1529 129 L 1525 125 L 1520 123 L 1514 117 L 1489 112 L 1486 109 L 1485 106 L 1477 104 L 1407 104 L 1406 105 Z M 1288 105 L 1285 107 L 1283 111 L 1277 114 L 1271 115 L 1261 123 L 1248 128 L 1241 135 L 1234 138 L 1230 144 L 1223 149 L 1222 152 L 1212 161 L 1210 165 L 1203 170 L 1198 181 L 1191 191 L 1188 202 L 1183 208 L 1180 214 L 1179 224 L 1178 225 L 1177 242 L 1171 265 L 1171 281 L 1176 302 L 1178 321 L 1181 333 L 1188 343 L 1193 360 L 1200 367 L 1202 373 L 1209 379 L 1213 387 L 1235 410 L 1238 411 L 1246 420 L 1251 422 L 1257 429 L 1266 433 L 1273 440 L 1283 445 L 1289 451 L 1297 454 L 1305 461 L 1317 466 L 1323 472 L 1335 477 L 1344 485 L 1353 488 L 1357 493 L 1371 499 L 1378 506 L 1386 509 L 1395 517 L 1403 520 L 1411 528 L 1417 530 L 1424 537 L 1432 542 L 1461 569 L 1466 578 L 1473 585 L 1477 593 L 1483 598 L 1486 609 L 1493 618 L 1494 624 L 1498 634 L 1510 645 L 1514 645 L 1524 636 L 1528 630 L 1531 621 L 1536 616 L 1541 607 L 1541 605 L 1548 597 L 1554 580 L 1554 575 L 1549 559 L 1540 549 L 1537 543 L 1529 535 L 1528 532 L 1519 524 L 1517 520 L 1511 517 L 1506 510 L 1499 506 L 1492 498 L 1485 495 L 1474 486 L 1468 484 L 1462 478 L 1452 473 L 1444 466 L 1434 462 L 1425 454 L 1413 449 L 1405 442 L 1398 440 L 1387 431 L 1379 429 L 1373 422 L 1362 418 L 1354 411 L 1346 408 L 1340 402 L 1326 395 L 1320 389 L 1312 385 L 1307 379 L 1301 376 L 1278 355 L 1275 350 L 1266 341 L 1264 336 L 1257 330 L 1253 320 L 1247 312 L 1244 300 L 1236 283 L 1235 268 L 1234 267 L 1234 249 L 1233 248 L 1236 213 L 1239 200 L 1245 187 L 1245 183 L 1255 168 L 1259 157 L 1264 152 L 1270 142 L 1277 137 L 1285 129 L 1290 126 L 1297 124 L 1306 117 L 1318 114 L 1329 113 L 1346 108 L 1344 106 L 1331 105 L 1330 104 L 1294 104 L 1293 105 Z"/>
</svg>
